<?xml version="1.0" encoding="UTF-8"?>
<svg id="Calque_2" data-name="Calque 2" xmlns="http://www.w3.org/2000/svg" viewBox="0 0 105.69 899">
  <defs>
    <style>
      .cls-1 {
        fill: #fff;
      }
    </style>
  </defs>
  <g id="Calque_1-2" data-name="Calque 1">
    <g>
      <path d="m103.14,0l-35.65,24.19s-39.47,431.67-30.56,629.05H4.72s-4.72,1.27-4.72,6.37,5.09,7.64,5.09,7.64h33.13v225.39l-.02,6.37h27.74v-233.03h33.38s6.37,0,6.37-6.37-7.64-7.64-7.64-7.64h-33.11S85.32,101.87,103.14,0Z"/>
      <polygon class="cls-1" points="43.29 677.43 52.21 672.34 60.54 677.43 51.92 682.32 43.29 677.43"/>
      <polygon class="cls-1" points="43.54 703.11 52.46 698.02 60.79 703.11 52.17 708 43.54 703.11"/>
      <polygon class="cls-1" points="43.54 728.58 52.46 723.49 60.79 728.58 52.17 733.47 43.54 728.58"/>
      <polygon class="cls-1" points="43.54 756.6 52.46 751.5 60.79 756.6 52.17 761.48 43.54 756.6"/>
      <polygon class="cls-1" points="43.21 784.19 52.13 779.1 60.46 784.19 51.84 789.08 43.21 784.19"/>
      <polygon class="cls-1" points="43.21 812.21 52.13 807.11 60.46 812.21 51.84 817.09 43.21 812.21"/>
      <polygon class="cls-1" points="43.21 840.22 52.13 835.13 60.46 840.22 51.84 845.11 43.21 840.22"/>
      <polygon class="cls-1" points="43.21 868.23 52.13 863.14 60.46 868.23 51.84 873.12 43.21 868.23"/>
    </g>
  </g>
</svg>