<svg width="38" height="510" viewBox="0 0 38 510" fill="none" xmlns="http://www.w3.org/2000/svg">
<g id="katana 1" clip-path="url(#clip0_1_5)">
<g id="Calque 1">
<g id="Group">
<path id="Vector" d="M37.0832 0L24.2655 13.7229C24.2655 13.7229 10.0744 258.608 13.2779 370.581H1.69704C1.69704 370.581 0 371.302 0 374.195C0 377.088 1.83007 378.529 1.83007 378.529H13.7417V506.392L13.7345 510.006H23.7082V377.808H35.7097C35.7097 377.808 38 377.808 38 374.195C38 370.581 35.2531 369.861 35.2531 369.861H23.3487C23.3487 369.861 30.6761 57.7905 37.0832 0Z" fill="black"/>
<path id="Vector_2" d="M15.5646 384.304L18.7717 381.417L21.7667 384.304L18.6674 387.078L15.5646 384.304Z" fill="white"/>
<path id="Vector_3" d="M15.6545 398.872L18.8616 395.985L21.8566 398.872L18.7573 401.646L15.6545 398.872Z" fill="white"/>
<path id="Vector_4" d="M15.6545 413.321L18.8616 410.434L21.8566 413.321L18.7573 416.095L15.6545 413.321Z" fill="white"/>
<path id="Vector_5" d="M15.6545 429.217L18.8616 426.324L21.8566 429.217L18.7573 431.985L15.6545 429.217Z" fill="white"/>
<path id="Vector_6" d="M15.5358 444.869L18.7429 441.981L21.7379 444.869L18.6387 447.643L15.5358 444.869Z" fill="white"/>
<path id="Vector_7" d="M15.5358 460.764L18.7429 457.871L21.7379 460.764L18.6387 463.533L15.5358 460.764Z" fill="white"/>
<path id="Vector_8" d="M15.5358 476.654L18.7429 473.767L21.7379 476.654L18.6387 479.428L15.5358 476.654Z" fill="white"/>
<path id="Vector_9" d="M15.5358 492.544L18.7429 489.657L21.7379 492.544L18.6387 495.318L15.5358 492.544Z" fill="white"/>
</g>
</g>
</g>
<defs>
<clipPath id="clip0_1_5">
<rect width="38" height="510" fill="white"/>
</clipPath>
</defs>
</svg>
