<?xml version="1.0" encoding="UTF-8"?>
<svg id="Calque_2" data-name="Calque 2" xmlns="http://www.w3.org/2000/svg" viewBox="0 0 447.08 252.56">
  <defs>
    <style>
      .cls-1 {
        stroke: #000;
        stroke-miterlimit: 10;
        stroke-width: 3px;
      }
    </style>
  </defs>
  <g id="Calque_3" data-name="Calque 3">
    <path class="cls-1" id="vent" d="m16.94,76.97h243.7s19.3-1,16.3-30c-3-23-24-19-24-19,0,0-12,5-16,20-10,13-21.02,4.37-21.02,4.37,0,0-6.98-5.37-1.98-18.37s16-26,32-31,37,4,39,8c4,4,17,12,19,39s-14,43-20,45c-6,4-22,9-37,8-15,0-232.33.13-232.33.13,0,0-9.67-.13-12.67-11.13s10-16,15-15Z"/>
    <path class="cls-1" id="vent" d="m321.94,98.97h92.58s2.42,1,4.42-5-1-12-4-12c-1-1-4-1-5,1s-2,10-8,12-13,1-15,0-9-7-5-16,12-19,20-21,16-4,25,1,13,10,16,19,4,16.76,0,26.88-11,14.12-19,17.12-25,2-25,2l-77,.16s-8-1.16-11-10.16,8-15,11-15Z"/>
    <path class="cls-1" id="vent" d="m47.94,131.97h244.16s23.84,0,36.84,19,10,32,8,45-17,28-23,31-21,9-36,3-28-27-31-34,1-12,4-14,3-4,13-3c6,5,5,4,8,9s5,11,11,16,19,0,23-4,8-12,6-22-10-20-16-21-248-.58-248-.58c0,0-10,.58-12-12.42,0-9,9-12,12-12Z"/>
    <path class="cls-1" id="vent" d="m53.94,207.97h143s3-1,6,2,3,3,3,7-4,11-6,12c-2,2-5.94,5.13-9.47,3.57s-9.53-9.57-9.53-12.57-2-6-4-7-6-2-9,1-4,4-5,8,1,8,2,10,5,10,15,15,15,4,15,4c0,0,11,1,21-8s12-19,12-22,1-15-5-24-16-13-21-14-7.33-.72-7.33-.72H53.94s-5-.28-10,6.72,0,17,10,19"/>
  </g>
</svg>