<?xml version="1.0" encoding="utf-8"?>
<!-- Generator: Adobe Illustrator 27.4.0, SVG Export Plug-In . SVG Version: 6.00 Build 0)  -->
<svg version="1.1" id="Calque_2_00000098927755626302886350000000475315976857311625_"
	 xmlns="http://www.w3.org/2000/svg" xmlns:xlink="http://www.w3.org/1999/xlink" x="0px" y="0px" viewBox="0 0 447.1 252.6"
	 style="enable-background:new 0 0 447.1 252.6;" xml:space="preserve">
<style type="text/css">
	.st0{fill:none;stroke:#000000;stroke-width:3;stroke-miterlimit:10;}
</style>
<g id="Calque_3">
	<path id="vent" class="st0" d="M16.9,77h243.7c0,0,19.3-1,16.3-30c-3-23-24-19-24-19s-12,5-16,20c-10,13-21,4.4-21,4.4
		s-7-5.4-2-18.4s16-26,32-31s37,4,39,8c4,4,17,12,19,39s-14,43-20,45c-6,4-22,9-37,8c-15,0-232.3,0.1-232.3,0.1S4.9,103,1.9,92
		S11.9,76,16.9,77L16.9,77z"/>
	<path id="vent_00000128457039965207633050000015559704111121440668_" class="st0" d="M321.9,99h92.6c0,0,2.4,1,4.4-5s-1-12-4-12
		c-1-1-4-1-5,1s-2,10-8,12s-13,1-15,0s-9-7-5-16s12-19,20-21s16-4,25,1s13,10,16,19s4,16.8,0,26.9s-11,14.1-19,17.1s-25,2-25,2
		l-77,0.2c0,0-8-1.2-11-10.2S318.9,99,321.9,99L321.9,99z"/>
	<path id="vent_00000131326203929642548500000017148457806863404213_" class="st0" d="M47.9,132h244.2c0,0,23.8,0,36.8,19
		s10,32,8,45s-17,28-23,31s-21,9-36,3s-28-27-31-34s1-12,4-14s3-4,13-3c6,5,5,4,8,9s5,11,11,16s19,0,23-4s8-12,6-22s-10-20-16-21
		s-248-0.6-248-0.6s-10,0.6-12-12.4C35.9,135,44.9,132,47.9,132z"/>
	<path id="vent_00000170280379964441620640000017426290702622413953_" class="st0" d="M53.9,208h143c0,0,3-1,6,2s3,3,3,7s-4,11-6,12
		c-2,2-5.9,5.1-9.5,3.6s-9.5-9.6-9.5-12.6s-2-6-4-7s-6-2-9,1s-4,4-5,8s1,8,2,10s5,10,15,15s15,4,15,4s11,1,21-8s12-19,12-22
		s1-15-5-24s-16-13-21-14s-7.3-0.7-7.3-0.7H53.9c0,0-5-0.3-10,6.7S43.9,206,53.9,208"/>
</g>
</svg>
